<mxfile host="Electron" agent="Mozilla/5.0 (Windows NT 10.0; Win64; x64) AppleWebKit/537.36 (KHTML, like Gecko) draw.io/24.7.8 Chrome/128.0.6613.36 Electron/32.0.1 Safari/537.36" version="24.7.8">
  <diagram name="Page-1" id="e7e014a7-5840-1c2e-5031-d8a46d1fe8dd">
    <mxGraphModel dx="1909" dy="1160" grid="1" gridSize="10" guides="1" tooltips="1" connect="1" arrows="1" fold="1" page="1" pageScale="1" pageWidth="900" pageHeight="1600" background="none" math="0" shadow="0">
      <root>
        <mxCell id="0" />
        <mxCell id="1" parent="0" />
        <mxCell id="lamFJUV2KZfZTIPYrqLE-44" style="edgeStyle=orthogonalEdgeStyle;rounded=0;orthogonalLoop=1;jettySize=auto;html=1;entryX=0.5;entryY=0;entryDx=0;entryDy=0;" parent="1" source="lamFJUV2KZfZTIPYrqLE-41" target="lamFJUV2KZfZTIPYrqLE-43" edge="1">
          <mxGeometry relative="1" as="geometry" />
        </mxCell>
        <mxCell id="lamFJUV2KZfZTIPYrqLE-41" value="" style="ellipse;whiteSpace=wrap;html=1;aspect=fixed;fillColor=#000000;strokeColor=none;" parent="1" vertex="1">
          <mxGeometry x="760" y="40" width="40" height="40" as="geometry" />
        </mxCell>
        <mxCell id="lamFJUV2KZfZTIPYrqLE-42" value="" style="rounded=1;whiteSpace=wrap;html=1;arcSize=50;" parent="1" vertex="1">
          <mxGeometry x="735" y="100" width="90" height="30" as="geometry" />
        </mxCell>
        <mxCell id="lamFJUV2KZfZTIPYrqLE-46" style="edgeStyle=orthogonalEdgeStyle;rounded=0;orthogonalLoop=1;jettySize=auto;html=1;entryX=0.5;entryY=0;entryDx=0;entryDy=0;" parent="1" source="lamFJUV2KZfZTIPYrqLE-43" target="lamFJUV2KZfZTIPYrqLE-45" edge="1">
          <mxGeometry relative="1" as="geometry" />
        </mxCell>
        <mxCell id="lamFJUV2KZfZTIPYrqLE-43" value="ввід a b c x" style="text;html=1;align=center;verticalAlign=middle;whiteSpace=wrap;rounded=0;" parent="1" vertex="1">
          <mxGeometry x="750" y="100" width="60" height="30" as="geometry" />
        </mxCell>
        <mxCell id="lamFJUV2KZfZTIPYrqLE-64" style="edgeStyle=orthogonalEdgeStyle;rounded=0;orthogonalLoop=1;jettySize=auto;html=1;entryX=0;entryY=0.5;entryDx=0;entryDy=0;" parent="1" source="lamFJUV2KZfZTIPYrqLE-45" target="lamFJUV2KZfZTIPYrqLE-49" edge="1">
          <mxGeometry relative="1" as="geometry" />
        </mxCell>
        <mxCell id="lamFJUV2KZfZTIPYrqLE-66" style="edgeStyle=orthogonalEdgeStyle;rounded=0;orthogonalLoop=1;jettySize=auto;html=1;entryX=0.5;entryY=0;entryDx=0;entryDy=0;" parent="1" source="lamFJUV2KZfZTIPYrqLE-45" target="lamFJUV2KZfZTIPYrqLE-65" edge="1">
          <mxGeometry relative="1" as="geometry" />
        </mxCell>
        <mxCell id="lamFJUV2KZfZTIPYrqLE-45" value="" style="rhombus;whiteSpace=wrap;html=1;" parent="1" vertex="1">
          <mxGeometry x="765" y="170" width="30" height="30" as="geometry" />
        </mxCell>
        <mxCell id="7SVo62ElVWlCCwhTwCa5-29" style="edgeStyle=orthogonalEdgeStyle;rounded=0;orthogonalLoop=1;jettySize=auto;html=1;entryX=0.5;entryY=0;entryDx=0;entryDy=0;" edge="1" parent="1" source="lamFJUV2KZfZTIPYrqLE-49" target="7SVo62ElVWlCCwhTwCa5-20">
          <mxGeometry relative="1" as="geometry" />
        </mxCell>
        <mxCell id="lamFJUV2KZfZTIPYrqLE-49" value="" style="rounded=1;whiteSpace=wrap;html=1;arcSize=50;" parent="1" vertex="1">
          <mxGeometry x="950" y="165" width="100" height="40" as="geometry" />
        </mxCell>
        <mxCell id="lamFJUV2KZfZTIPYrqLE-60" value="[x &amp;lt;= -1 - R]" style="text;html=1;align=center;verticalAlign=middle;whiteSpace=wrap;rounded=0;" parent="1" vertex="1">
          <mxGeometry x="825" y="150" width="95" height="30" as="geometry" />
        </mxCell>
        <mxCell id="lamFJUV2KZfZTIPYrqLE-61" value="[x &amp;gt; -1 - R &amp;amp;&amp;amp; x &amp;lt; -1]" style="text;html=1;align=center;verticalAlign=middle;whiteSpace=wrap;rounded=0;" parent="1" vertex="1">
          <mxGeometry x="815" y="250" width="115" height="30" as="geometry" />
        </mxCell>
        <mxCell id="lamFJUV2KZfZTIPYrqLE-62" value="y = x + (1 + R)" style="text;html=1;align=center;verticalAlign=middle;whiteSpace=wrap;rounded=0;" parent="1" vertex="1">
          <mxGeometry x="970" y="170" width="60" height="30" as="geometry" />
        </mxCell>
        <mxCell id="lamFJUV2KZfZTIPYrqLE-68" style="edgeStyle=orthogonalEdgeStyle;rounded=0;orthogonalLoop=1;jettySize=auto;html=1;entryX=0;entryY=0.5;entryDx=0;entryDy=0;" parent="1" source="lamFJUV2KZfZTIPYrqLE-65" target="lamFJUV2KZfZTIPYrqLE-67" edge="1">
          <mxGeometry relative="1" as="geometry" />
        </mxCell>
        <mxCell id="7SVo62ElVWlCCwhTwCa5-13" style="edgeStyle=orthogonalEdgeStyle;rounded=0;orthogonalLoop=1;jettySize=auto;html=1;entryX=0.5;entryY=0;entryDx=0;entryDy=0;" edge="1" parent="1" source="lamFJUV2KZfZTIPYrqLE-65" target="7SVo62ElVWlCCwhTwCa5-1">
          <mxGeometry relative="1" as="geometry" />
        </mxCell>
        <mxCell id="lamFJUV2KZfZTIPYrqLE-65" value="" style="rhombus;whiteSpace=wrap;html=1;" parent="1" vertex="1">
          <mxGeometry x="765" y="270" width="30" height="30" as="geometry" />
        </mxCell>
        <mxCell id="7SVo62ElVWlCCwhTwCa5-23" style="edgeStyle=orthogonalEdgeStyle;rounded=0;orthogonalLoop=1;jettySize=auto;html=1;entryX=0;entryY=0.5;entryDx=0;entryDy=0;" edge="1" parent="1" source="lamFJUV2KZfZTIPYrqLE-67" target="7SVo62ElVWlCCwhTwCa5-20">
          <mxGeometry relative="1" as="geometry" />
        </mxCell>
        <mxCell id="lamFJUV2KZfZTIPYrqLE-67" value="" style="rounded=1;whiteSpace=wrap;html=1;arcSize=50;" parent="1" vertex="1">
          <mxGeometry x="950" y="260" width="130" height="50" as="geometry" />
        </mxCell>
        <mxCell id="lamFJUV2KZfZTIPYrqLE-63" value="y = sqrt(R * R - pow((x + 1), 2))" style="text;html=1;align=center;verticalAlign=middle;whiteSpace=wrap;rounded=0;" parent="1" vertex="1">
          <mxGeometry x="951.5" y="274" width="125" height="25" as="geometry" />
        </mxCell>
        <mxCell id="7SVo62ElVWlCCwhTwCa5-34" style="edgeStyle=orthogonalEdgeStyle;rounded=0;orthogonalLoop=1;jettySize=auto;html=1;entryX=0.5;entryY=0;entryDx=0;entryDy=0;" edge="1" parent="1" source="lamFJUV2KZfZTIPYrqLE-101" target="lamFJUV2KZfZTIPYrqLE-104">
          <mxGeometry relative="1" as="geometry" />
        </mxCell>
        <mxCell id="lamFJUV2KZfZTIPYrqLE-101" value="" style="rounded=1;whiteSpace=wrap;html=1;arcSize=50;" parent="1" vertex="1">
          <mxGeometry x="720" y="700" width="120" height="40" as="geometry" />
        </mxCell>
        <mxCell id="lamFJUV2KZfZTIPYrqLE-102" value="y" style="text;html=1;align=center;verticalAlign=middle;whiteSpace=wrap;rounded=0;" parent="1" vertex="1">
          <mxGeometry x="718.75" y="705" width="122.5" height="30" as="geometry" />
        </mxCell>
        <mxCell id="lamFJUV2KZfZTIPYrqLE-104" value="" style="ellipse;html=1;shape=endState;fillColor=#000000;strokeColor=#ff0000;" parent="1" vertex="1">
          <mxGeometry x="765" y="810" width="30" height="30" as="geometry" />
        </mxCell>
        <mxCell id="7SVo62ElVWlCCwhTwCa5-14" style="edgeStyle=orthogonalEdgeStyle;rounded=0;orthogonalLoop=1;jettySize=auto;html=1;entryX=0.5;entryY=0;entryDx=0;entryDy=0;" edge="1" parent="1" source="7SVo62ElVWlCCwhTwCa5-1" target="7SVo62ElVWlCCwhTwCa5-5">
          <mxGeometry relative="1" as="geometry" />
        </mxCell>
        <mxCell id="7SVo62ElVWlCCwhTwCa5-1" value="" style="rhombus;whiteSpace=wrap;html=1;" vertex="1" parent="1">
          <mxGeometry x="765" y="360" width="30" height="30" as="geometry" />
        </mxCell>
        <mxCell id="7SVo62ElVWlCCwhTwCa5-2" style="edgeStyle=orthogonalEdgeStyle;rounded=0;orthogonalLoop=1;jettySize=auto;html=1;entryX=0;entryY=0.5;entryDx=0;entryDy=0;" edge="1" parent="1" target="7SVo62ElVWlCCwhTwCa5-3">
          <mxGeometry relative="1" as="geometry">
            <mxPoint x="795" y="375" as="sourcePoint" />
          </mxGeometry>
        </mxCell>
        <mxCell id="7SVo62ElVWlCCwhTwCa5-27" style="edgeStyle=orthogonalEdgeStyle;rounded=0;orthogonalLoop=1;jettySize=auto;html=1;entryX=0;entryY=0.5;entryDx=0;entryDy=0;" edge="1" parent="1" source="7SVo62ElVWlCCwhTwCa5-3" target="7SVo62ElVWlCCwhTwCa5-21">
          <mxGeometry relative="1" as="geometry" />
        </mxCell>
        <mxCell id="7SVo62ElVWlCCwhTwCa5-3" value="" style="rounded=1;whiteSpace=wrap;html=1;arcSize=50;" vertex="1" parent="1">
          <mxGeometry x="950" y="355" width="100" height="40" as="geometry" />
        </mxCell>
        <mxCell id="7SVo62ElVWlCCwhTwCa5-4" value="y = R" style="text;html=1;align=center;verticalAlign=middle;whiteSpace=wrap;rounded=0;" vertex="1" parent="1">
          <mxGeometry x="965" y="365" width="70" height="20" as="geometry" />
        </mxCell>
        <mxCell id="7SVo62ElVWlCCwhTwCa5-19" style="edgeStyle=orthogonalEdgeStyle;rounded=0;orthogonalLoop=1;jettySize=auto;html=1;entryX=0.5;entryY=0;entryDx=0;entryDy=0;" edge="1" parent="1" source="7SVo62ElVWlCCwhTwCa5-5" target="7SVo62ElVWlCCwhTwCa5-17">
          <mxGeometry relative="1" as="geometry" />
        </mxCell>
        <mxCell id="7SVo62ElVWlCCwhTwCa5-5" value="" style="rhombus;whiteSpace=wrap;html=1;" vertex="1" parent="1">
          <mxGeometry x="765" y="455" width="30" height="30" as="geometry" />
        </mxCell>
        <mxCell id="7SVo62ElVWlCCwhTwCa5-6" style="edgeStyle=orthogonalEdgeStyle;rounded=0;orthogonalLoop=1;jettySize=auto;html=1;entryX=0;entryY=0.5;entryDx=0;entryDy=0;" edge="1" parent="1" target="7SVo62ElVWlCCwhTwCa5-7">
          <mxGeometry relative="1" as="geometry">
            <mxPoint x="795" y="470" as="sourcePoint" />
          </mxGeometry>
        </mxCell>
        <mxCell id="7SVo62ElVWlCCwhTwCa5-28" style="edgeStyle=orthogonalEdgeStyle;rounded=0;orthogonalLoop=1;jettySize=auto;html=1;entryX=0;entryY=0.5;entryDx=0;entryDy=0;" edge="1" parent="1" source="7SVo62ElVWlCCwhTwCa5-7" target="7SVo62ElVWlCCwhTwCa5-22">
          <mxGeometry relative="1" as="geometry" />
        </mxCell>
        <mxCell id="7SVo62ElVWlCCwhTwCa5-7" value="" style="rounded=1;whiteSpace=wrap;html=1;arcSize=50;" vertex="1" parent="1">
          <mxGeometry x="950" y="450" width="100" height="40" as="geometry" />
        </mxCell>
        <mxCell id="7SVo62ElVWlCCwhTwCa5-8" value="y = -x + 2" style="text;html=1;align=center;verticalAlign=middle;whiteSpace=wrap;rounded=0;" vertex="1" parent="1">
          <mxGeometry x="965" y="460" width="70" height="20" as="geometry" />
        </mxCell>
        <mxCell id="7SVo62ElVWlCCwhTwCa5-15" value="[x &amp;gt;= -1 &amp;amp;&amp;amp; x &amp;lt;= 1]" style="text;html=1;align=center;verticalAlign=middle;whiteSpace=wrap;rounded=0;" vertex="1" parent="1">
          <mxGeometry x="815" y="340" width="115" height="30" as="geometry" />
        </mxCell>
        <mxCell id="7SVo62ElVWlCCwhTwCa5-16" value="[x &amp;gt; 1 &amp;amp;&amp;amp; x &amp;lt;= 2]" style="text;html=1;align=center;verticalAlign=middle;whiteSpace=wrap;rounded=0;" vertex="1" parent="1">
          <mxGeometry x="815" y="440" width="115" height="30" as="geometry" />
        </mxCell>
        <mxCell id="7SVo62ElVWlCCwhTwCa5-31" style="edgeStyle=orthogonalEdgeStyle;rounded=0;orthogonalLoop=1;jettySize=auto;html=1;entryX=0.5;entryY=0;entryDx=0;entryDy=0;" edge="1" parent="1" source="7SVo62ElVWlCCwhTwCa5-17" target="7SVo62ElVWlCCwhTwCa5-30">
          <mxGeometry relative="1" as="geometry" />
        </mxCell>
        <mxCell id="7SVo62ElVWlCCwhTwCa5-17" value="y = -1" style="rounded=1;whiteSpace=wrap;html=1;arcSize=50;" vertex="1" parent="1">
          <mxGeometry x="730" y="530" width="100" height="40" as="geometry" />
        </mxCell>
        <mxCell id="7SVo62ElVWlCCwhTwCa5-24" style="edgeStyle=orthogonalEdgeStyle;rounded=0;orthogonalLoop=1;jettySize=auto;html=1;entryX=0.5;entryY=0;entryDx=0;entryDy=0;" edge="1" parent="1" source="7SVo62ElVWlCCwhTwCa5-20" target="7SVo62ElVWlCCwhTwCa5-21">
          <mxGeometry relative="1" as="geometry" />
        </mxCell>
        <mxCell id="7SVo62ElVWlCCwhTwCa5-20" value="" style="rhombus;whiteSpace=wrap;html=1;" vertex="1" parent="1">
          <mxGeometry x="1140" y="270.5" width="30" height="30" as="geometry" />
        </mxCell>
        <mxCell id="7SVo62ElVWlCCwhTwCa5-25" style="edgeStyle=orthogonalEdgeStyle;rounded=0;orthogonalLoop=1;jettySize=auto;html=1;entryX=0.5;entryY=0;entryDx=0;entryDy=0;" edge="1" parent="1" source="7SVo62ElVWlCCwhTwCa5-21" target="7SVo62ElVWlCCwhTwCa5-22">
          <mxGeometry relative="1" as="geometry" />
        </mxCell>
        <mxCell id="7SVo62ElVWlCCwhTwCa5-21" value="" style="rhombus;whiteSpace=wrap;html=1;" vertex="1" parent="1">
          <mxGeometry x="1140" y="360" width="30" height="30" as="geometry" />
        </mxCell>
        <mxCell id="7SVo62ElVWlCCwhTwCa5-26" style="edgeStyle=orthogonalEdgeStyle;rounded=0;orthogonalLoop=1;jettySize=auto;html=1;entryX=1;entryY=0.5;entryDx=0;entryDy=0;" edge="1" parent="1" source="7SVo62ElVWlCCwhTwCa5-22" target="7SVo62ElVWlCCwhTwCa5-30">
          <mxGeometry relative="1" as="geometry">
            <Array as="points">
              <mxPoint x="1155" y="635" />
            </Array>
          </mxGeometry>
        </mxCell>
        <mxCell id="7SVo62ElVWlCCwhTwCa5-22" value="" style="rhombus;whiteSpace=wrap;html=1;" vertex="1" parent="1">
          <mxGeometry x="1140" y="455" width="30" height="30" as="geometry" />
        </mxCell>
        <mxCell id="7SVo62ElVWlCCwhTwCa5-32" style="edgeStyle=orthogonalEdgeStyle;rounded=0;orthogonalLoop=1;jettySize=auto;html=1;entryX=0.5;entryY=0;entryDx=0;entryDy=0;" edge="1" parent="1" source="7SVo62ElVWlCCwhTwCa5-30" target="lamFJUV2KZfZTIPYrqLE-101">
          <mxGeometry relative="1" as="geometry" />
        </mxCell>
        <mxCell id="7SVo62ElVWlCCwhTwCa5-30" value="" style="rhombus;whiteSpace=wrap;html=1;" vertex="1" parent="1">
          <mxGeometry x="765" y="620" width="30" height="30" as="geometry" />
        </mxCell>
      </root>
    </mxGraphModel>
  </diagram>
</mxfile>
